<svg id="eZSu9HYsXwQ1" xmlns="http://www.w3.org/2000/svg" xmlns:xlink="http://www.w3.org/1999/xlink" viewBox="0 0 1280 1280" shape-rendering="geometricPrecision" text-rendering="geometricPrecision" project-id="f77f18cfd00f4ce791bdd950cc924785" export-id="2c27e1606127472cbd7dea833288e72f" cached="true"><g clip-path="url(#eZSu9HYsXwQ4)"><path d="M285.157771,0C285.157771,157.488288,157.488288,285.157771,0,285.157771s-285.157771-127.669483-285.157771-285.157771s127.669483-285.157771,285.157771-285.157771s285.157771,127.669483,285.157771,285.157771Z" transform="matrix(.931257 0 0 0.931258 644.043293 629.062793)" fill="rgba(120,140,181,0)" stroke="#000" stroke-width="12.5"/><clipPath id="eZSu9HYsXwQ4"><path d="M285.157771,0C285.157771,157.488288,157.488288,285.157771,0,285.157771s-285.157771-127.669483-285.157771-285.157771s127.669483-285.157771,285.157771-285.157771s285.157771,127.669483,285.157771,285.157771Z" transform="matrix(1.000239 0 0 1.00024 663.714047 599.949046)" fill="#fff" stroke="rgba(0,0,0,0)"/></clipPath></g><path d="M1793.43906,389.823107l.299675,25.172739-11.987018,61.766751-14.684098,35.3281-21.876309,38.127995-24.573389,33.494442-41.355214,42.853592-23.374687,19.478905-28.768845-24.273713-48.547425-36.560407l16.48215-34.992819l35.06203-52.212742l39.446651-43.752618l39.667672-29.667872l16.781827-9.589614l24.873063-12.286695l16.182476-6.892536l26.371441-5.993508Z" transform="translate(-1042.386979 77.015028)" stroke-width="2.56" stroke-linecap="round" stroke-linejoin="round"/><path d="M1650.846443,468.396759l-85.139381,17.661893-16.529721,10.118225-14.944679,14.084747-13.812507,17.00811-12.00103,21.119883-14.944678,33.494442-8.944164,24.029215l27.950512-13.44455l21.751867-9.086288l24.59645-8.603909l20.166824-2.830431l12.383138-23.558479l25.120081-38.127993q34.347288-41.864865,34.347288-41.864865Z" transform="translate(-1042.281494 72.206692)" stroke-width="2.56"/><path d="M1650.846443,468.396759l-85.139381,17.661893-16.529721,10.118225-14.944679,14.084747-13.812507,17.00811-12.00103,21.119883-14.944678,33.494442-8.944164,24.029215l27.950512-13.44455l21.751867-9.086288l24.59645-8.603909l20.166824-2.830431l12.383138-23.558479l25.120081-38.127993q34.347288-41.864865,34.347288-41.864865Z" transform="matrix(-.246637-.969108-.969108 0.246637 1571.418637 2109.837748)" stroke-width="2.56"/><path d="M1506.622205,758.008721l4.5036-25.734857l13.5108-44.233736l22.518001-43.823571l18.336085-24.273714l22.839686-20.66698l10.937315,7.540569-15.11923,20.441806-14.475858,24.790779-9.328886,25.538273v10.452837l12.545743-5.305866l19.301143-12.728419l18.657772-17.956825l15.119227-18.514612l3.361223-3.066564l11.761817,9.019798-3.211049,7.107602q-8.665546,17.497445-8.665546,17.566908t-12.195652,17.797627l-21.35477,23.001813-27.204613,22.661046-26.579872,15.391336q-35.256936,14.99475-35.256936,14.99475Z" transform="translate(-1043.517083 85.179173)" stroke-width="2.56"/><path d="M1550.800545,510.261624l2.380968-4.627538l11.499196-7.984889l43.198107-8.10973l28.879178-5.032488-9.183071,11.669897-47.688643,2.516366-14.186263,3.039914q-14.899472,8.528468-14.899472,8.528468Z" transform="translate(-1044.816342 76.935542)" fill="#fff" stroke-width="2.56"/><path d="M1550.800545,510.261624l2.380968-4.627538l11.499196-7.984889l43.198107-8.10973l28.879178-5.032488-9.183071,11.669897-47.688643,2.516366-14.186263,3.039914q-14.899472,8.528468-14.899472,8.528468Z" transform="matrix(-.202959-.979187-.979187 0.202959 1503.563722 2149.342021)" fill="#fff" stroke-width="2.56"/><path d="M1611.527209,622.462454l-1.696302-5.937057l4.523472-8.300893l10.366291-14.222231l16.586064-17.257247l20.82682-19.872923-15.078241,26.510334-10.649008,17.876239-16.491827,19.695953-8.387269,1.507825Z" transform="translate(-1048.469005 88.112277)" stroke="#fff" stroke-width="5"/><path d="M1643.42881,583.382438l-8.696329,13.521838-7.966567,9.304463q16.541269-22.8263,16.662896-22.826301Z" transform="translate(-1052.967639 93.63381)" fill="#fff" stroke-width="2.56"/><ellipse rx="23.980895" ry="23.980895" transform="translate(693.05979 540.60345)" stroke="#fff" stroke-width="7"/><ellipse rx="17.903433" ry="17.903433" transform="translate(693.05979 540.60345)" fill="#fff" stroke-width="0"/><path d="M1661.990076,506.339995l32.810944-13.118108-.471786,8.217115-5.497251,8.139595-10.232633,4.573677-10.387674-1.70544q-6.396644-6.244641-6.2216-6.106839Z" transform="translate(-983.366012 45.127711)" stroke="#000" stroke-width="2.56"/><path d="M1657.293298,600.759799l13.179107-10.990035l9.560436-8.622264l10.103559-8.873899l9.131803-9.524339l16.041534-16.080182l18.14185-21.786362l15.341429-20.698754.730544-.55975-.45659,3.81676-6.727095,11.414754-4.291947,8.096865-6.240066,8.918728-5.905233,7.88379-5.897623,8.332771-7.990328,11.43883-9.417172,10.325301-6.991537,8.032047-8.846434,10.041314-9.654979,8.323258-8.228136,9.336667-11.583122-8.8255Z" transform="translate(-1043.628749 88.379623)" fill="#fff" stroke-width="2.56"/><polygon points="0,-27.847043 8.184041,-11.264366 26.484112,-8.60521 13.242056,4.302605 16.368081,22.528731 0,13.923522 -16.368081,22.528731 -13.242056,4.302605 -26.484112,-8.60521 -8.184041,-11.264366 0,-27.847043" transform="matrix(-.392322 0.919828-.919828-.392322 618.083406 440.629757)" fill="#35b6fe" stroke-width="0"/><polygon points="0,-27.847043 8.184041,-11.264366 26.484112,-8.60521 13.242056,4.302605 16.368081,22.528731 0,13.923522 -16.368081,22.528731 -13.242056,4.302605 -26.484112,-8.60521 -8.184041,-11.264366 0,-27.847043" transform="matrix(-.165298 0.387554-.387552-.165298 548.328048 501.755489)" fill="#35b6fe" stroke-width="0"/><polygon points="0,-40.739422 11.973016,-16.479442 38.745493,-12.589174 19.372746,6.294587 23.946031,32.958885 0,20.369711 -23.946031,32.958885 -19.372746,6.294587 -38.745493,-12.589174 -11.973016,-16.479442 0,-40.739422" transform="matrix(-.688683 0.24503-.245032-.688689 795.462509 548.814792)" fill="#35b6fe" stroke-width="0"/><polygon points="0,-12.485928 3.669522,-5.050664 11.874823,-3.858364 5.937411,1.929182 7.339044,10.101328 0,6.242964 -7.339044,10.101328 -5.937411,1.929182 -11.874823,-3.858364 -3.669522,-5.050664 0,-12.485928" transform="matrix(-1 0 0-1 760.703146 641.279201)" fill="#35b6fe" stroke-width="0"/><polygon points="0,-128 38.014061,-38.014061 128,0 38.014061,38.014061 0,128 -38.014061,38.014061 -128,0 -38.014061,-38.014061 0,-128" transform="matrix(.148519 0.069792-.069792 0.148521 408.18477 740.018978)" fill="#35b6fe" stroke-width="0"/><polygon points="0,-128 38.014061,-38.014061 128,0 38.014061,38.014061 0,128 -38.014061,38.014061 -128,0 -38.014061,-38.014061 0,-128" transform="matrix(.105242 0.121928-.12193 0.105244 561.361902 856.097278)" fill="#35b6fe" stroke-width="0"/><ellipse rx="4.07227" ry="4.07227" transform="translate(453.521566 725.080557)" fill="#35b6fe" stroke-width="0"/><ellipse rx="4.07227" ry="4.07227" transform="matrix(.59669 0 0 0.596688 491.97611 778.123043)" fill="#fff" stroke-width="0"/><ellipse rx="4.07227" ry="4.07227" transform="matrix(.201655 0 0 0.201655 494.405992 770.91943)" fill="#fff" stroke-width="0"/><ellipse rx="2.819507" ry="2.819507" transform="translate(366.042707 737.19947)" fill="#35b6fe" stroke-width="0"/><ellipse rx="7.526782" ry="7.526782" transform="translate(434.722008 811.176599)" fill="#35b6fe" stroke-width="0"/><ellipse rx="2.14382" ry="2.14382" transform="translate(508.128012 873.847866)" fill="#35b6fe" stroke-width="0"/><ellipse rx="3.677897" ry="3.677897" transform="translate(634.597573 830.697197)" fill="#35b6fe" stroke-width="0"/><ellipse rx="3.876113" ry="3.876113" transform="translate(795.473311 591.073284)" fill="#35b6fe" stroke-width="0"/><ellipse rx="4.416499" ry="4.416499" transform="translate(572.552462 455.971272)" fill="#35b6fe" stroke-width="0"/><path d="M491.996094,688.29485l-.8122,1.228256.695732,1.009391q.077645-2.237646.116468-2.237647Z" transform="matrix(.671424 0.741073-.741073 0.671424 677.594057-60.755399)" fill="#fff" stroke-width="2.56"/><ellipse rx="3.077299" ry="3.077299" transform="translate(731.414825 534.56638)" fill="#fff" stroke-width="0"/><path d="M726.798619,456.766096h-3.077299l-.000001,12.380802l3.077299-3.894862l1.40658-2.095977q.019999-2.875258-.020001-3.035258c-.04-.16-1.386575-3.354705-1.386578-3.354705Z" transform="matrix(.952632 0.304125-.304125 0.952632 178.494673-114.628113)" fill="#fff" stroke-width="2.56"/></svg>
